<svg width="25" height="26" viewBox="0 0 25 26" fill="none" xmlns="http://www.w3.org/2000/svg">
<g clip-path="url(#clip0_66_98)">
<path fill-rule="evenodd" clip-rule="evenodd" d="M12.5 0.5L17.925 3.625L23.325 6.75V13V19.25L17.925 22.375L12.5 25.5L7.07499 22.375L1.67499 19.25V13V6.75L7.09999 3.625C7.07499 3.625 12.5 0.5 12.5 0.5ZM12.75 9.9L14.775 11.05L20.075 8L16.55 5.975L12.5 3.625L8.44999 5.975L4.92499 8L5.94999 8.6L10.225 11.075L12.5 9.75L12.75 9.9ZM20.625 8.9L15.3 11.975V14.6L13.025 15.925V22.075L16.55 20.025L20.6 17.675V13C20.625 13 20.625 8.9 20.625 8.9ZM11.975 22.075V15.925L9.69999 14.6V11.975L5.42499 9.5L4.39999 8.9V13V17.7L8.44999 20.05C8.44999 20.025 11.975 22.075 11.975 22.075ZM13.375 11.475L12.5 10.975L11.275 11.675L12.5 12.375L13.725 11.675L13.375 11.475ZM14.25 13V12.6L13.025 13.3V14.725L14.25 14V13ZM11.625 14.5L11.975 14.7V13.275L10.75 12.575V14L11.625 14.5Z" fill="white"/>
</g>
<defs>
<clipPath id="clip0_66_98">
<rect width="25" height="25" fill="white" transform="translate(0 0.5)"/>
</clipPath>
</defs>
</svg>
